# xmcd
#
# Track frame offsets:
#	150
#	9249
#	19438
#	33439
#	45668
#	59345
#	72332
#	87054
#	100078
#	113755
#	124397
#	138311
#
# Disc length: 1997 seconds
#
# Revision: 1
# Processed by: cddbd v1.5.2PL0 Copyright (c) Steve Scherf et al.
# Submitted via: audiograbber 1.83.01
#
DISCID=9c07cb0c
DTITLE=Willie Nelson - Make Way For Willie Nelson
DYEAR=1967
DGENRE=Country
TTITLE0=Make Way For A Better Man
TTITLE1=Some Other World
TTITLE2=Have I Stayed Away Too Long
TTITLE3=Born To Lose
TTITLE4=Lovin' Lies
TTITLE5=You Made Me Live, Love And Die
TTITLE6=What Now My Love
TTITLE7=Teach Me To Forget
TTITLE8=A Mansion On The Hill
TTITLE9=If It's Wrong To Love You
TTITLE10=Have I Told You Lately That I Love You
TTITLE11=One In A Row
EXTD=
EXTT0=
EXTT1=
EXTT2=
EXTT3=
EXTT4=
EXTT5=
EXTT6=
EXTT7=
EXTT8=
EXTT9=
EXTT10=
EXTT11=
PLAYORDER=
